<svg width="126" height="62" viewBox="0 0 126 62" fill="none" xmlns="http://www.w3.org/2000/svg">
<path d="M79.1982 14.7969C88.0221 14.7969 95.0361 22.083 95.0361 31.0332C95.0361 39.916 88.0231 47.3359 79.1982 47.3359C74.2521 47.3358 69.8151 44.9276 66.9941 41.2246V59.4092C66.9939 60.3438 66.2051 61.1258 65.2109 61.126C64.2796 61.126 63.4934 60.3405 63.4932 59.4092V16.5137C63.4932 15.5822 64.2795 14.7969 65.2109 14.7969C66.2051 14.797 66.9941 15.579 66.9941 16.5137V20.8457C69.815 17.2044 74.2523 14.797 79.1982 14.7969ZM2.59082 0.874023C3.58509 0.874023 4.37383 1.65614 4.37402 2.59082V33.5137L23.3848 14.5684L23.5205 14.4443C23.8449 14.1733 24.2206 14.0342 24.6006 14.0342C25.0328 14.0342 25.4597 14.214 25.8115 14.5635H25.8125C26.4886 15.1721 26.524 16.1579 25.9414 16.8633L25.8164 17.001L13.3682 29.4492L25.8916 44.6768L26.0029 44.8262C26.519 45.5826 26.4137 46.5042 25.751 47.167L25.7402 47.1768L25.7393 47.1758C25.3767 47.4656 24.9466 47.5352 24.6006 47.5352C24.1243 47.5351 23.5383 47.4 23.2373 46.8838L10.8682 31.9492L4.37402 38.4443V45.8174C4.37402 46.7522 3.58521 47.5352 2.59082 47.5352C1.65945 47.535 0.874023 46.7488 0.874023 45.8174V2.59082C0.874214 1.65954 1.65957 0.874157 2.59082 0.874023ZM79.1982 18.2979C72.7071 18.2981 67.2569 23.6765 66.9941 30.5078V31.0332C66.9942 38.1276 72.5764 43.8339 79.1982 43.9004C86.0197 43.8344 91.5361 38.1275 91.5361 31.0332C91.5361 23.9391 86.0198 18.2979 79.1982 18.2979ZM123.484 7.34766C124.498 7.34779 125.293 8.12702 125.293 9.20508V28.4658C125.293 36.4626 119.254 43.0205 111.639 43.0205C104.156 43.0203 98.1875 36.4607 98.1875 28.4658V9.20508C98.1875 8.13032 98.9794 7.34766 99.9287 7.34766C100.878 7.34782 101.67 8.13043 101.67 9.20508V28.4658C101.67 34.4638 106.13 39.2324 111.639 39.3047C117.216 39.2328 121.743 34.4624 121.743 28.4658V9.20508C121.743 8.12693 122.606 7.34766 123.484 7.34766ZM57.0977 8.89258C58.0256 8.89267 58.8145 9.60919 58.8145 10.6104V39.9141C58.8145 40.8455 58.029 41.6317 57.0977 41.6318C56.1662 41.6318 55.3799 40.8456 55.3799 39.9141V35.4551C52.5634 39.1593 48.1917 41.6317 43.3086 41.6318C34.6801 41.6318 27.802 34.2088 27.8018 25.2627C27.8018 16.3164 34.6799 8.89258 43.3086 8.89258C48.1903 8.89267 52.5627 11.3007 55.3799 15.002V10.6104C55.3799 9.60912 56.1697 8.89258 57.0977 8.89258ZM43.3086 12.2617C36.7564 12.2617 31.2363 18.0317 31.2363 25.2627C31.2366 32.4926 36.7558 38.1973 43.3086 38.1973C49.9272 38.1971 55.3796 32.493 55.3799 25.2627C55.3799 18.0313 49.9265 12.2619 43.3086 12.2617ZM113.539 7.34766C114.203 7.34767 114.929 7.57336 115.489 7.88379C115.77 8.03917 116.014 8.2187 116.19 8.40723C116.364 8.59306 116.486 8.80376 116.486 9.01855C116.486 9.25494 116.387 9.48078 116.246 9.69238C116.105 9.90456 115.913 10.1135 115.71 10.3164L115.708 10.3184L110.336 15.4902L110.333 15.4922C109.925 15.8665 109.592 16.0965 109.244 16.2305C108.895 16.3646 108.541 16.3984 108.099 16.3984C107.841 16.3984 107.598 16.325 107.415 16.2002C107.233 16.0759 107.1 15.8901 107.1 15.668C107.1 15.3614 107.251 15.0662 107.39 14.8584L111.554 8.6123L111.76 8.32227C111.969 8.05006 112.187 7.83172 112.428 7.6709C112.752 7.4547 113.113 7.34766 113.539 7.34766Z" fill="white" stroke="white" stroke-width="0.252185"/>
</svg>
